#!OML:ASF E:\Mandelcareful walks\Project 1\Capture day 1\Session 1\Subject1.ASF
:FULLY-SPECIFIED
:DEGREES
217
root -9.09436 14.7832 1.38497 -180.138 33.1381 173.275
lowerback 43.331 0.448956 -2.95289
upperback 8.51802 1.50577 -3.24737
thorax -10.829 1.86387 -2.86803
lowerneck -28.1502 4.06026 -1.34926
upperneck 18.3009 8.64663 -8.78166
head 10.9308 2.79185 -1.46973
rclavicle 7.03698e-014 -4.63168e-014
rhumerus -13.2989 1.39541 -67.5117
rradius 48.5773
rwrist -13.1116
rhand -9.29424 -32.6112
rfingers 7.12502
rthumb 16.6632 -61.916
lclavicle 7.03698e-014 -4.63168e-014
lhumerus -26.7013 -15.5379 84.3712
lradius 40.5581
lwrist 18.5087
lhand -16.2803 -15.1034
lfingers 7.12502
lthumb 9.92978 14.6424
rfemur -28.8639 -23.7067 20.6373
rtibia 66.5205
rfoot -36.1804 -7.56693
rtoes 3.88222
lfemur -53.9776 12.5506 -34.2913
ltibia 55.5859
lfoot -5.84318 -1.63173
ltoes -16.6599
218
root -8.99288 14.762 1.34959 -179.326 33.9474 173.75
lowerback 41.9388 0.797103 -2.87037
upperback 8.74035 1.98337 -3.15768
thorax -10.15 2.04844 -2.95701
lowerneck -29.1582 4.04548 -1.74706
upperneck 20.0167 9.02439 -8.60045
head 11.7503 2.84266 -1.26365
rclavicle 1.59028e-015 -2.50469e-014
rhumerus -12.2731 2.46047 -67.523
rradius 48.9752
rwrist -12.9624
rhand -13.4006 -32.5484
rfingers 7.12502
rthumb 12.7071 -62.1418
lclavicle 1.59028e-015 -2.50469e-014
lhumerus -27.0151 -15.1776 84.893
lradius 40.9397
lwrist 18.5184
lhand -15.6494 -15.1215
lfingers 7.12502
lthumb 10.5383 14.5943
rfemur -29.3722 -23.5553 21.5001
rtibia 66.506
rfoot -35.8981 -6.90083
rtoes 4.73441
lfemur -54.7394 11.8717 -35.0246
ltibia 53.6841
lfoot -5.12139 -1.25838
ltoes -15.5681
219
root -8.80057 14.7871 1.30866 -180.135 34.4806 174.365
lowerback 42.4082 1.42939 -3.52518
upperback 9.05292 2.63738 -2.83039
thorax -9.92892 2.39491 -2.55404
lowerneck -29.1821 3.98353 -1.2379
upperneck 20.8844 9.00186 -9.05924
head 12.1462 2.77486 -1.52275
rclavicle -1.31198e-014 -3.95581e-014
rhumerus -11.4655 3.54203 -67.6024
rradius 49.4725
rwrist -12.9038
rhand -12.0977 -32.3461
rfingers 7.12502
rthumb 13.9629 -61.8573
lclavicle -1.31198e-014 -3.95581e-014
lhumerus -27.3783 -15.0029 85.2019
lradius 41.2551
lwrist 18.4503
lhand -15.1858 -15.1994
lfingers 7.12502
lthumb 10.9855 14.4931
rfemur -26.6781 -23.3735 21.8823
rtibia 65.829
rfoot -36.1104 -6.02959
rtoes 7.5533
lfemur -53.3014 12.6283 -35.1169
ltibia 51.9677
lfoot -4.94219 -1.93735
ltoes -15.5481
220
root -8.72787 14.7791 1.26047 -179.339 35.5234 174.694
lowerback 41.312 1.61741 -2.94776
upperback 9.04456 3.02537 -3.16929
thorax -9.58131 2.53352 -3.32877
lowerneck -29.3818 3.97829 -1.6233
upperneck 22.1225 9.22066 -8.59988
head 12.6347 2.83807 -1.24869
rclavicle -1.37559e-013 5.42682e-014
rhumerus -10.9657 4.47265 -67.7927
rradius 50.2565
rwrist -12.7524
rhand -11.6055 -32.1173
rfingers 7.12502
rthumb 14.4371 -61.5951
lclavicle -1.37559e-013 5.42682e-014
lhumerus -27.6712 -15.1009 85.3188
lradius 41.4643
lwrist 18.3733
lhand -14.4345 -15.5419
lfingers 7.12502
lthumb 11.7101 14.1108
rfemur -27.2377 -23.0391 22.3835
rtibia 65.7444
rfoot -35.9309 -5.7539
rtoes 3.33879
lfemur -53.4236 7.66658 -33.4381
ltibia 50.4281
lfoot -6.19684 3.51719
ltoes -14.4735
221
root -8.57198 14.7473 1.192 -179.962 36.3914 175.017
lowerback 41.3948 2.03904 -3.34167
upperback 9.36595 3.48107 -3.23175
thorax -9.22954 2.7871 -3.37133
lowerneck -29.2815 4.0144 -1.38639
upperneck 22.7201 9.28318 -8.66103
head 12.8745 2.85517 -1.30152
rclavicle 3.33958e-014 6.4605e-015
rhumerus -10.209 5.69414 -68.1348
rradius 51.2479
rwrist -12.4444
rhand -11.7297 -31.7636
rfingers 7.12502
rthumb 14.3175 -61.25
lclavicle 3.33958e-014 6.4605e-015
lhumerus -27.7344 -14.9635 85.1703
lradius 41.705
lwrist 18.3942
lhand -13.5633 -15.2128
lfingers 7.12502
lthumb 12.5501 14.3903
rfemur -25.269 -22.6477 22.3768
rtibia 65.428
rfoot -36.187 -4.91721
rtoes 3.37258
lfemur -53.427 12.5638 -36.1904
ltibia 49.2587
lfoot -4.53447 -0.078633
ltoes -14.6433
222
root -8.44205 14.7254 1.119 -179.795 37.6279 175.32
lowerback 40.5543 2.37546 -3.56326
upperback 9.60518 3.83204 -3.43888
thorax -8.68272 2.95483 -3.56399
lowerneck -29.3675 4.24952 -1.42771
upperneck 23.4169 9.75693 -8.63917
head 13.1943 3.02928 -1.19332
rclavicle -5.33737e-014 2.64384e-014
rhumerus -9.18899 7.10744 -68.5799
rradius 52.1564
rwrist -12.1642
rhand -11.0652 -31.2147
rfingers 7.12502
rthumb 14.9577 -60.6546
lclavicle -5.33737e-014 2.64384e-014
lhumerus -27.803 -14.5003 84.8744
lradius 41.9947
lwrist 18.4355
lhand -13.5861 -14.7131
lfingers 7.12502
lthumb 12.5282 14.8913
rfemur -24.7273 -22.026 22.6809
rtibia 65.3937
rfoot -35.7631 -4.58693
rtoes 2.18466
lfemur -53.7262 13.477 -36.933
ltibia 48.2497
lfoot -3.76491 0.445994
ltoes -13.8872
